<svg class="svg-icon" style="width: 1em; height: 1em;vertical-align: middle;fill: currentColor;overflow: hidden;" viewBox="0 0 1024 1024" version="1.1" xmlns="http://www.w3.org/2000/svg"><path d="M366.308827 827.64596a15.656585 15.656585 0 0 1-7.176447-1.743714c-2.969635-1.526773-72.940243-38.207184-90.335424-109.298311-25.863041-105.700367 34.411741-172.288948 36.990472-175.072341 5.91164-6.379291 15.874549-6.759961 22.254863-0.848321 6.364965 5.89936 6.757914 15.83157 0.886183 22.212907-0.313132 0.346901-13.20679 14.758122-23.180955 39.821961-13.310144 33.44881-15.448854 69.248154-6.357801 106.401332 13.930267 56.93164 73.567529 88.475054 74.16821 88.788186 7.706519 4.003174 10.734482 13.495362 6.748704 21.212114a15.743566 15.743566 0 0 1-13.997805 8.526187zM540.205389 129.385812H370.016265c-14.495132 0-26.245757-11.750625-26.245757-26.245757S355.521133 76.894298 370.016265 76.894298h170.189124c14.496156 0 26.245757 11.750625 26.245757 26.245757s-11.749602 26.245757-26.245757 26.245757zM540.205389 231.417627H370.016265c-14.495132 0-26.245757-11.750625-26.245757-26.245758s11.750625-26.245757 26.245757-26.245757h170.189124c14.496156 0 26.245757 11.750625 26.245757 26.245757s-11.749602 26.245757-26.245757 26.245758z" fill="" /><path d="M455.116455 947.106726c-44.630477 0.002047-89.836051-10.04989-133.633556-29.962406-57.59065-26.184359-103.637382-72.577992-129.656989-130.634246-18.348903-40.939411-28.126594-83.063811-29.064966-125.20049-0.887206-39.85266 6.107091-78.645175 20.786419-115.300002 27.675316-69.106937 81.519642-125.635395 148.884912-156.849305v-44.286645c0-35.83209 29.151947-64.983014 64.983013-64.983014h115.393124c35.831067 0 64.98199 29.150924 64.98199 64.983014v49.155536c4.414543 6.936993 5.510504 15.838733 2.166339 24.031323-5.480828 13.420661-20.801768 19.857257-34.220382 14.377452-12.415774-5.068436-20.438495-16.98893-20.438495-30.364565v-57.199746c0-6.770194-5.719258-12.491499-12.490475-12.491499H397.413242c-6.770194 0-12.491499 5.720282-12.491499 12.491499v57.19463c0 13.379729-8.023744 25.300222-20.441565 30.370704C304.529785 456.916451 256.342296 505.424234 232.274134 565.523007c-24.944112 62.286602-22.297842 133.143393 7.449669 199.518103 20.787442 46.381353 57.537438 83.428108 103.482863 104.316857 129.310088 58.792011 245.907643 6.675026 304.105113-71.054289 8.686846-11.603269 25.13547-13.96813 36.740785-5.279237 11.604292 8.68787 13.967106 25.136493 5.279237 36.740786-39.240723 52.41272-95.507214 90.552365-158.431336 107.395986-24.810059 6.641257-50.204425 9.94449-75.78401 9.945513z" fill="" /><path d="M807.127647 284.192597c-44.36544 58.624189-97.28879 150.499689-97.28879 255.125585 0 104.624872 52.922327 196.500373 97.287767 255.125585-46.958498-14.851243-89.332585-42.61968-121.977075-80.441077-20.525476-23.779589-36.550451-50.653657-47.629787-79.875188-11.465123-30.240745-17.278525-62.138222-17.278526-94.808296s5.814426-64.567551 17.278526-94.808296c11.079336-29.221532 27.103288-56.096622 47.629787-79.876212 32.644491-37.82242 75.019601-65.591881 121.978098-80.442101m36.849257-40.476876c-0.934279 0-1.895163 0.073678-2.874467 0.227174-142.978389 22.394033-252.355495 146.111752-252.355495 295.375287S698.124048 812.299437 841.102437 834.694493c0.980327 0.153496 1.940189 0.227174 2.87549 0.227174 14.402011 0 23.027459-17.451464 13.002129-28.987195-42.938951-49.408293-115.643833-150.247956-115.643834-266.615266s72.704882-217.206974 115.643834-266.615267c10.024308-11.536754 1.400906-28.990265-13.003152-28.988218z" fill="" /></svg>